<svg xmlns="http://www.w3.org/2000/svg" viewBox="0 0 100 100">
  <!-- Fundo -->
  <rect width="100" height="100" fill="#1a1a2e"/>
  
  <!-- Colunas do Kanban -->
  <rect x="5" y="20" width="12" height="60" fill="#e74c3c" rx="2"/>
  <rect x="22" y="20" width="12" height="60" fill="#f39c12" rx="2"/>
  <rect x="39" y="20" width="12" height="60" fill="#3498db" rx="2"/>
  <rect x="56" y="20" width="12" height="60" fill="#2ecc71" rx="2"/>
  <rect x="73" y="20" width="12" height="60" fill="#27ae60" rx="2"/>
  
  <!-- Cartões -->
  <rect x="8" y="25" width="8" height="8" fill="#3498db" rx="1"/>
  <rect x="25" y="30" width="8" height="8" fill="#3498db" rx="1"/>
  <rect x="42" y="35" width="8" height="8" fill="#3498db" rx="1"/>
  <rect x="59" y="40" width="8" height="8" fill="#3498db" rx="1"/>
  <rect x="76" y="25" width="8" height="35" fill="#2ecc71" rx="1" opacity="0.7"/>
  
  <!-- Ícone de fluxo -->
  <path d="M 50 85 L 50 90 M 45 88 L 50 90 L 55 88" stroke="#3498db" stroke-width="1.5" fill="none" stroke-linecap="round" stroke-linejoin="round"/>
</svg>
